<?xml version="1.0" encoding="utf-8"?>
<!-- Generator: Adobe Illustrator 24.2.0, SVG Export Plug-In . SVG Version: 6.00 Build 0)  -->
<svg version="1.1" id="Layer_1" xmlns="http://www.w3.org/2000/svg" xmlns:xlink="http://www.w3.org/1999/xlink" x="0px" y="0px"
	 viewBox="0 0 184 24.3" style="enable-background:new 0 0 184 24.3;" xml:space="preserve">
<style type="text/css">
	.st0{fill-rule:evenodd;clip-rule:evenodd;fill:#FFFFFF;}
	.st1{fill:#FFFFFF;}
</style>
<path class="st0" d="M12,0C5.4,0,0,5.4,0,12.1c0,5.3,3.4,9.8,8.2,11.4C8.8,23.6,9,23.3,9,22.9c0-0.3,0-1.2,0-2.2
	c-3.3,0.7-4-1.4-4-1.4c-0.5-1.4-1.3-1.8-1.3-1.8c-1.1-0.7,0.1-0.7,0.1-0.7C4.9,16.8,5.6,18,5.6,18c1.1,1.8,2.8,1.3,3.5,1
	c0.1-0.8,0.4-1.3,0.8-1.6c-2.7-0.3-5.5-1.3-5.5-6c0-1.3,0.5-2.4,1.2-3.2C5.5,7.9,5,6.7,5.7,5c0,0,1-0.3,3.3,1.2c1-0.3,2-0.4,3-0.4
	c1,0,2,0.1,3,0.4C17.3,4.7,18.3,5,18.3,5c0.7,1.7,0.2,2.9,0.1,3.2c0.8,0.8,1.2,1.9,1.2,3.2c0,4.6-2.8,5.7-5.5,6
	c0.4,0.4,0.8,1.1,0.8,2.2c0,1.6,0,2.9,0,3.3c0,0.3,0.2,0.7,0.8,0.6c4.8-1.6,8.2-6.1,8.2-11.4C24,5.4,18.6,0,12,0z"/>
<path class="st1" d="M4.5,17.3c0,0.1-0.1,0.1-0.2,0c-0.1,0-0.1-0.1-0.1-0.2c0-0.1,0.1-0.1,0.2,0C4.5,17.2,4.6,17.3,4.5,17.3z"/>
<path class="st1" d="M5,17.9c-0.1,0.1-0.2,0-0.2-0.1c-0.1-0.1-0.1-0.2,0-0.3c0.1-0.1,0.2,0,0.2,0.1C5.1,17.7,5.1,17.8,5,17.9z"/>
<path class="st1" d="M5.5,18.6c-0.1,0.1-0.2,0-0.3-0.1c-0.1-0.1-0.1-0.2,0-0.3c0.1-0.1,0.2,0,0.3,0.1C5.6,18.4,5.6,18.5,5.5,18.6z"
	/>
<path class="st1" d="M6.1,19.2c-0.1,0.1-0.2,0.1-0.3,0c-0.1-0.1-0.1-0.2-0.1-0.3c0.1-0.1,0.2-0.1,0.3,0C6.2,19,6.2,19.2,6.1,19.2z"
	/>
<path class="st1" d="M7,19.6c0,0.1-0.2,0.1-0.3,0.1c-0.1,0-0.2-0.2-0.2-0.2c0-0.1,0.2-0.1,0.3-0.1C7,19.4,7.1,19.5,7,19.6z"/>
<path class="st1" d="M8,19.7c0,0.1-0.1,0.2-0.3,0.2c-0.1,0-0.3-0.1-0.3-0.2c0-0.1,0.1-0.2,0.3-0.2C7.9,19.5,8,19.6,8,19.7z"/>
<path class="st1" d="M8.9,19.5c0,0.1-0.1,0.2-0.2,0.2c-0.1,0-0.3,0-0.3-0.1c0-0.1,0.1-0.2,0.2-0.2C8.8,19.4,8.9,19.4,8.9,19.5z"/>
<path class="st1" d="M32.7,20l1.3-3.8h5.7l1.3,3.8h2.3L38.2,5.5h-2.5L30.4,20H32.7z M34.7,14.3l2.1-6.2H37l2.1,6.2H34.7z"/>
<path class="st1" d="M45.1,20h2.1v-6.6c0-1.4,1.1-2.5,2.6-2.5c0.4,0,0.9,0.1,1.1,0.1V9c-0.2,0-0.6,0-0.9,0c-1.3,0-2.4,0.7-2.8,1.9
	h-0.1V9.1h-2V20z"/>
<path class="st1" d="M56.8,20.2c2.6,0,4.2-1.5,4.5-3.7h-2.1c-0.3,1.2-1.2,1.9-2.4,1.9c-1.8,0-2.9-1.5-2.9-3.9c0-2.3,1.2-3.8,2.9-3.8
	c1.3,0,2.2,0.8,2.4,1.9h2.1C61,10.4,59.2,9,56.7,9c-3.1,0-5,2.3-5,5.6C51.7,17.9,53.6,20.2,56.8,20.2z"/>
<path class="st1" d="M65.4,13.5c0-1.7,1.1-2.7,2.6-2.7c1.5,0,2.3,0.9,2.3,2.5V20h2.1v-6.9c0-2.7-1.5-4.1-3.7-4.1
	C67,9,66,9.7,65.5,10.9h-0.1V5.5h-2.1V20h2.1V13.5z"/>
<path class="st1" d="M75.1,20h2.1V9.1h-2.1V20z M76.2,7.4c0.7,0,1.3-0.6,1.3-1.3s-0.6-1.3-1.3-1.3c-0.7,0-1.3,0.6-1.3,1.3
	S75.4,7.4,76.2,7.4z"/>
<path class="st1" d="M89.2,9.1h-2.3l-2.7,8.4H84l-2.8-8.4H79l4,10.9h2.3L89.2,9.1z"/>
<path class="st1" d="M95.3,20.2c2.4,0,4.1-1.2,4.5-2.9l-2-0.4c-0.4,1-1.3,1.6-2.5,1.6c-1.8,0-3-1.2-3.1-3.3h7.7v-0.8
	c0-3.9-2.4-5.5-4.8-5.5c-3,0-5,2.3-5,5.7C90.1,18,92,20.2,95.3,20.2z M92.2,13.6c0.1-1.5,1.2-2.9,2.9-2.9c1.6,0,2.7,1.2,2.7,2.9
	H92.2z"/>
<path class="st1" d="M107.3,20h2.2v-5.1h3c3.4,0,5-2,5-4.7c0-2.7-1.7-4.7-5-4.7h-5.2V20z M109.5,13V7.4h2.7c2.2,0,3.1,1.2,3.1,2.8
	c0,1.6-0.9,2.9-3,2.9H109.5z"/>
<path class="st1" d="M119.7,20h2.1v-6.6c0-1.4,1.1-2.5,2.6-2.5c0.4,0,0.9,0.1,1.1,0.1V9c-0.2,0-0.6,0-0.9,0c-1.3,0-2.4,0.7-2.8,1.9
	h-0.1V9.1h-2V20z"/>
<path class="st1" d="M131.4,20.2c3.1,0,5.1-2.2,5.1-5.6c0-3.4-2-5.6-5.1-5.6c-3.1,0-5.1,2.2-5.1,5.6C126.3,18,128.3,20.2,131.4,20.2
	z M131.4,18.4c-2,0-2.9-1.7-2.9-3.8c0-2.1,0.9-3.9,2.9-3.9c2,0,2.9,1.8,2.9,3.9C134.3,16.7,133.4,18.4,131.4,18.4z"/>
<path class="st1" d="M143.1,24.3c2.8,0,4.9-1.3,4.9-4V9.1H146v1.8h-0.2c-0.4-0.7-1.1-1.9-3.2-1.9c-2.6,0-4.6,2.1-4.6,5.5
	c0,3.5,2,5.3,4.5,5.3c2,0,2.8-1.1,3.2-1.8h0.1v2.1c0,1.7-1.2,2.4-2.8,2.4c-1.8,0-2.5-0.9-2.8-1.5l-1.8,0.8
	C139.1,23.1,140.6,24.3,143.1,24.3z M143.1,18.1c-1.9,0-2.9-1.5-2.9-3.6c0-2.1,1-3.7,2.9-3.7c1.8,0,2.8,1.5,2.8,3.7
	C146,16.7,145,18.1,143.1,18.1z"/>
<path class="st1" d="M150.7,20h2.1v-6.6c0-1.4,1.1-2.5,2.6-2.5c0.4,0,0.9,0.1,1.1,0.1V9c-0.2,0-0.6,0-0.9,0c-1.3,0-2.4,0.7-2.8,1.9
	h-0.1V9.1h-2V20z"/>
<path class="st1" d="M161.2,20.2c1.8,0,2.8-0.9,3.2-1.7h0.1V20h2.1v-7.2c0-3.2-2.5-3.8-4.2-3.8c-2,0-3.8,0.8-4.5,2.8l2,0.5
	c0.3-0.8,1.1-1.5,2.5-1.5c1.4,0,2.1,0.7,2.1,1.9v0c0,0.8-0.8,0.8-2.7,1c-2.1,0.2-4.2,0.8-4.2,3.3C157.5,19.1,159.2,20.2,161.2,20.2z
	 M161.7,18.5c-1.2,0-2.1-0.5-2.1-1.6c0-1.1,1-1.5,2.2-1.7c0.7-0.1,2.3-0.3,2.6-0.6v1.4C164.5,17.4,163.4,18.5,161.7,18.5z"/>
<path class="st1" d="M169.2,20h2.1v-6.7c0-1.5,1-2.5,2.2-2.5c1.2,0,2,0.8,2,2V20h2.1v-6.9c0-1.3,0.8-2.3,2.2-2.3c1.1,0,2,0.6,2,2.1
	V20h2.1v-7.3c0-2.5-1.4-3.7-3.4-3.7c-1.6,0-2.7,0.8-3.3,1.9h-0.1c-0.5-1.2-1.5-1.9-2.9-1.9c-1.4,0-2.5,0.7-3,1.9h-0.1V9.1h-2V20z"/>
</svg>
